# Blender v2.79 (sub 0) OBJ File: ''
# www.blender.org
mtllib dungeon.mtl
o Cube
v 7.459487 -4.311586 -9.208229
v 7.459487 -4.311586 9.208230
v -7.459488 -4.311586 9.208228
v -7.459484 -4.311586 -9.208233
v 7.459490 4.311586 -9.208225
v 7.459482 4.311586 9.208236
v -7.459490 4.311586 9.208227
v -7.459486 4.311586 -9.208230
v 31.148695 -4.311586 -9.208221
v 31.148695 -4.311586 9.208239
v 31.148699 4.311587 -9.208217
v 31.148691 4.311587 9.208244
v 51.221130 3.127699 -9.208215
v 51.221130 3.127699 13.059368
v 51.221134 11.750872 -9.208211
v 51.221130 11.750872 13.059373
v 67.241859 3.127697 -25.341671
v 67.241859 3.127697 -3.074089
v 67.241867 11.750870 -25.341667
v 67.241859 11.750870 -3.074083
v 79.597244 3.127695 -25.341667
v 79.597244 3.127695 -3.074084
v 79.597252 11.750867 -25.341661
v 79.597244 11.750867 -3.074079
v 67.241859 3.127700 -59.541653
v 67.241867 11.750874 -59.541649
v 79.597244 3.127698 -59.541649
v 79.597252 11.750872 -59.541645
v 67.241859 3.127702 -79.269005
v 67.241867 11.750875 -79.269005
v 79.597244 3.127700 -79.269005
v 79.597252 11.750874 -79.268997
v 33.786392 3.127709 -59.541653
v 33.786400 11.750883 -59.541649
v 33.786392 3.127712 -79.269005
v 33.786400 11.750885 -79.269005
v 7.647628 11.247458 -59.541653
v 7.647635 19.870630 -59.541649
v 7.647628 11.247459 -79.269005
v 7.647635 19.870632 -79.269005
v -42.622303 -4.311589 9.208219
v -42.622299 -4.311589 -9.208243
v -42.622307 4.311584 9.208217
v -42.622303 4.311584 -9.208240
v -7.775833 11.247462 -59.541653
v -7.775826 19.870634 -59.541649
v -7.775833 11.247464 -79.269005
v -7.775826 19.870636 -79.269005
v 7.647628 11.247458 -24.533121
v 7.647635 19.870630 -24.533115
v -7.775833 11.247462 -24.533121
v -7.775826 19.870634 -24.533115
v 7.459480 -4.311588 39.966934
v -7.459495 -4.311588 39.966934
v 7.459475 4.311585 39.966942
v -7.459497 4.311585 39.966934
v 7.647628 11.247458 -5.255106
v 7.647635 19.870630 -5.255102
v -7.775833 11.247462 -5.255106
v -7.775826 19.870634 -5.255102
v 23.995314 25.024597 -24.533115
v 23.995314 25.024597 -5.255102
v 23.995306 16.401424 -24.533121
v 23.995306 16.401424 -5.255106
v 39.101120 21.745979 -5.255106
v 39.101128 30.369152 -5.255102
v 39.101120 21.745979 -24.533121
v 39.101128 30.369152 -24.533115
v 65.177635 21.745979 -5.255106
v 65.177635 30.369152 -5.255102
v 65.177635 21.745979 -24.533121
v 65.177635 30.369152 -24.533115
v -7.775826 19.870634 37.072514
v 7.647635 19.870630 37.072514
v 7.647628 11.247458 37.072510
v -7.775833 11.247462 37.072510
v 81.013634 21.745979 -5.255106
v 81.013641 30.369152 -5.255102
v 81.013634 21.745979 -24.533121
v 81.013641 30.369152 -24.533115
v 65.177635 21.745979 48.017723
v 65.177635 30.369152 48.017731
v 81.013634 21.745979 48.017723
v 81.013641 30.369152 48.017731
v 65.177635 21.745979 -80.848076
v 65.177635 30.369152 -80.848061
v 81.013634 21.745979 -80.848076
v 81.013641 30.369152 -80.848061
vn 0.0000 1.0000 0.0000
vn -0.0000 -0.0000 1.0000
vn 0.1884 0.0000 -0.9821
vn -0.0000 0.0000 -1.0000
vn -0.7096 0.0000 -0.7046
vn -0.3475 0.9377 0.0000
vn -0.3335 0.9427 0.0000
vn -0.3007 0.9537 0.0000
vn 0.7096 -0.0000 0.7046
vn -1.0000 -0.0000 -0.0000
vn 1.0000 -0.0000 -0.0000
vn 0.2967 0.9550 0.0000
usemtl Material
s off
f 1//1 4//1 3//1 2//1
f 2//1 10//1 9//1 1//1
f 3//1 54//1 53//1 2//1
f 5//2 8//2 4//2 1//2
f 12//3 16//3 14//3 10//3
f 62//4 66//4 65//4 64//4
f 6//4 12//4 10//4 2//4
f 1//2 9//2 11//2 5//2
f 16//5 20//5 18//5 14//5
f 10//6 14//6 13//6 9//6
f 64//7 65//7 67//7 63//7
f 9//2 13//2 15//2 11//2
f 14//1 18//1 17//1 13//1
f 57//8 64//8 63//8 49//8
f 13//9 17//9 19//9 15//9
f 21//10 22//10 24//10 23//10
f 21//1 27//1 25//1 17//1
f 20//4 24//4 22//4 18//4
f 18//1 22//1 21//1 17//1
f 25//4 33//4 34//4 26//4
f 17//11 25//11 26//11 19//11
f 49//2 63//2 61//2 50//2
f 23//10 28//10 27//10 21//10
f 29//2 31//2 32//2 30//2
f 27//1 31//1 29//1 25//1
f 28//10 32//10 31//10 27//10
f 30//2 36//2 35//2 29//2
f 29//1 35//1 33//1 25//1
f 39//1 47//1 45//1 37//1
f 33//4 37//4 38//4 34//4
f 35//12 39//12 37//12 33//12
f 36//2 40//2 39//2 35//2
f 41//11 42//11 44//11 43//11
f 8//2 44//2 42//2 4//2
f 4//1 42//1 41//1 3//1
f 3//4 41//4 43//4 7//4
f 45//11 47//11 48//11 46//11
f 40//2 48//2 47//2 39//2
f 58//4 62//4 64//4 57//4
f 45//1 51//1 49//1 37//1
f 52//11 60//11 59//11 51//11
f 46//11 52//11 51//11 45//11
f 51//1 59//1 57//1 49//1
f 37//10 49//10 50//10 38//10
f 53//4 54//4 56//4 55//4
f 57//10 75//10 74//10 58//10
f 7//11 56//11 54//11 3//11
f 2//10 53//10 55//10 6//10
f 63//2 67//2 68//2 61//2
f 71//11 85//11 86//11 72//11
f 66//4 70//4 69//4 65//4
f 67//2 71//2 72//2 68//2
f 65//1 69//1 71//1 67//1
f 75//4 76//4 73//4 74//4
f 60//11 73//11 76//11 59//11
f 59//1 76//1 75//1 57//1
f 79//10 77//10 78//10 80//10
f 69//1 77//1 79//1 71//1
f 77//10 83//10 84//10 78//10
f 82//4 84//4 83//4 81//4
f 70//11 82//11 81//11 69//11
f 69//1 81//1 83//1 77//1
f 85//2 87//2 88//2 86//2
f 79//1 87//1 85//1 71//1
f 80//10 88//10 87//10 79//10
