# Blender v2.79 (sub 0) OBJ File: ''
# www.blender.org
mtllib sandbox.mtl
o Cube.001
v -10.000001 -1.002592 19.999996
v -20.000002 -1.002592 19.999996
v -20.000008 0.997408 19.999992
v -10.000001 2.668438 19.999996
v 10.000002 3.178635 -10.000000
v 20.000000 11.571152 -9.999994
v 10.000002 11.571152 -9.999996
v 20.000000 3.178635 -9.999998
v 0.000003 -1.002586 -10.000003
v 0.000002 -1.002586 -0.000002
v 10.000001 -1.002586 -0.000000
v 10.000001 3.178635 0.000000
v 10.000002 -1.002581 -20.000000
v 0.000004 -1.002581 -20.000004
v 10.000002 11.571157 -20.000000
v 20.000000 3.178635 0.000002
v 20.000000 -1.002586 0.000002
v 20.000000 -1.002592 20.000000
v 20.000000 2.369241 20.000000
v 0.000000 -1.002592 19.999998
v 0.000000 2.668438 19.999998
v -14.199668 0.051699 3.439528
v -14.199668 3.038220 3.439528
v -14.199668 3.038221 -5.133459
v -14.199668 0.051699 -5.133461
v -5.382823 3.038221 -5.133459
v -5.382823 0.051699 -5.133461
v -5.382823 3.038220 3.439528
v -5.382823 0.051699 3.439528
v 8.374440 0.504831 13.662635
v 8.374440 3.008239 13.662635
v 10.508821 3.008241 8.728129
v 10.508821 0.504835 8.728129
v 16.633278 3.008241 11.377214
v 16.633278 0.504835 11.377214
v 14.498897 3.008239 16.311720
v 14.498897 0.504831 16.311720
v -11.486852 -1.283947 -9.034533
v -11.486852 1.791937 -9.034533
v -10.036292 1.791937 -11.746901
v -10.036292 -1.283947 -11.746901
v -7.323925 1.791937 -10.296343
v -7.323925 -1.283947 -10.296343
v -8.774484 1.791937 -7.583973
v -8.774484 -1.283947 -7.583973
v -16.879177 -0.994348 -11.654077
v -16.879177 2.081537 -11.654077
v -15.428618 2.081537 -14.366445
v -15.428618 -0.994348 -14.366445
v -12.716251 2.081537 -12.915887
v -12.716251 -0.994348 -12.915887
v -14.166810 2.081537 -10.203518
v -14.166810 -0.994350 -10.203518
v -9.999999 -1.002587 9.999996
v -20.000000 -1.002587 9.999995
v -19.999996 -1.002586 -0.000006
v -19.999992 -1.002581 -20.000008
v -19.999998 0.997419 -20.000000
v -9.999997 -1.002586 -0.000004
v 0.000001 -1.002587 9.999998
v 0.000001 2.668442 9.999998
v -9.999999 2.668442 9.999996
v 20.000000 11.571157 -19.999998
v 20.000000 -1.002581 -19.999998
v 20.000000 -1.002586 -9.999998
v -17.882881 -1.002587 9.999996
v -17.882881 2.668442 9.999996
v 10.000001 3.178635 0.636286
v 20.000000 3.178635 0.636288
v 10.000001 3.676763 0.636286
v 20.000000 3.676763 0.636288
v 10.000001 3.676763 1.118322
v 20.000000 3.676763 1.118325
v 10.000001 4.168187 1.118323
v 20.000000 4.168187 1.118325
v 10.000001 4.168187 1.575377
v 20.000000 4.168187 1.575379
v 10.000001 4.744091 1.575377
v 20.000000 4.744091 1.575379
v 10.000001 4.744091 2.046607
v 20.000000 4.744091 2.046609
v 10.000001 5.338760 2.046607
v 20.000000 5.338760 2.046609
v 10.000001 5.338760 2.655550
v 20.000000 5.338760 2.655552
v 10.000001 5.967715 2.655550
v 20.000000 5.967715 2.655552
v 10.000001 5.967715 3.400294
v 20.000000 5.967715 3.400296
v 10.000001 6.524721 3.400294
v 20.000000 6.524721 3.400296
v 10.000001 6.524721 10.151503
v 20.000000 6.524721 10.151505
vn 0.0000 -0.0000 -1.0000
vn -0.0000 -0.0000 1.0000
vn -1.0000 0.0000 0.0000
vn 1.0000 0.0000 0.0000
vn 0.0000 -1.0000 -0.0000
vn 0.0000 1.0000 0.0000
vn -0.9178 0.0000 -0.3970
vn 0.3970 0.0000 -0.9178
vn 0.9178 0.0000 0.3970
vn -0.3970 0.0000 0.9178
vn -0.8818 0.0000 -0.4716
vn 0.4716 0.0000 -0.8818
vn 0.8818 0.0000 0.4716
vn -0.4716 0.0000 0.8818
vn -0.3858 0.9226 0.0000
vn -0.7827 0.6225 0.0000
usemtl Material.001
s off
f 1//1 2//1 3//1 4//1
f 5//2 6//2 7//2
f 5//2 8//2 6//2
f 5//2 7//2 9//2
f 10//2 11//2 12//2
f 13//1 14//1 15//1
f 16//3 17//3 18//3 19//3
f 18//1 20//1 21//1 19//1
f 22//3 23//3 24//3 25//3
f 25//1 24//1 26//1 27//1
f 27//4 26//4 28//4 29//4
f 29//2 28//2 23//2 22//2
f 25//5 27//5 29//5 22//5
f 26//6 24//6 23//6 28//6
f 30//7 31//7 32//7 33//7
f 33//8 32//8 34//8 35//8
f 35//9 34//9 36//9 37//9
f 37//10 36//10 31//10 30//10
f 33//5 35//5 37//5 30//5
f 34//6 32//6 31//6 36//6
f 38//11 39//11 40//11 41//11
f 41//12 40//12 42//12 43//12
f 43//13 42//13 44//13 45//13
f 45//14 44//14 39//14 38//14
f 41//5 43//5 45//5 38//5
f 42//6 40//6 39//6 44//6
f 46//11 47//11 48//11 49//11
f 49//12 48//12 50//12 51//12
f 51//13 50//13 52//13 53//13
f 53//14 52//14 47//14 46//14
f 49//5 51//5 53//5 46//5
f 50//6 48//6 47//6 52//6
s 1
f 54//6 55//6 2//6 1//6
f 2//4 55//4 56//4 57//4 58//4 3//4
f 14//6 57//6 56//6 59//6 10//6 9//6
f 17//6 11//6 10//6 60//6 20//6 18//6
f 59//6 56//6 55//6 54//6
f 10//6 59//6 54//6 60//6
f 20//2 21//2 4//2 1//2
f 61//6 62//6 4//6 21//6
f 1//3 4//3 62//3 54//3
f 54//1 62//1 61//1 60//1
f 60//4 61//4 21//4 20//4
f 13//1 15//1 63//1 64//1
f 17//2 16//2 12//2 11//2
f 63//6 15//6 7//6 6//6
f 64//4 63//4 6//4 65//4
f 8//6 5//6 12//6 16//6
f 65//4 8//4 16//4 17//4
f 9//15 10//15 12//15 5//15
f 14//16 9//16 7//16 15//16
f 58//2 57//2 14//2 15//2
f 62//1 54//1 66//1 67//1
f 16//6 12//6 68//6 69//6
f 69//1 68//1 70//1 71//1
f 71//6 70//6 72//6 73//6
f 73//1 72//1 74//1 75//1
f 75//6 74//6 76//6 77//6
f 77//1 76//1 78//1 79//1
f 79//6 78//6 80//6 81//6
f 81//1 80//1 82//1 83//1
f 83//6 82//6 84//6 85//6
f 85//1 84//1 86//1 87//1
f 87//6 86//6 88//6 89//6
f 89//1 88//1 90//1 91//1
f 91//6 90//6 92//6 93//6
