# Blender v2.79 (sub 0) OBJ File: ''
# www.blender.org
mtllib sandbox.mtl
o Cube.001
v -10.000001 -1.002590 19.999996
v -20.000002 -1.002590 19.999996
v -20.000008 0.997410 19.999992
v -10.000001 2.668440 19.999996
v 10.000002 3.178635 -10.000000
v 20.000000 11.571152 -9.999996
v 10.000002 11.571152 -9.999998
v 20.000000 3.178635 -9.999998
v 0.000003 -1.002586 -10.000003
v 0.000002 -1.002586 -0.000002
v 10.000001 -1.002586 -0.000000
v 10.000001 3.178635 0.000000
v 10.000002 -1.002583 -20.000000
v 0.000004 -1.002583 -20.000004
v 10.000002 11.571155 -20.000000
v 20.000000 3.178635 0.000002
v 20.000000 -1.002586 0.000002
v 20.000000 -1.002590 20.000000
v 20.000000 2.369243 20.000000
v 0.000000 -1.002590 19.999998
v 0.000000 2.668440 19.999998
v -14.199668 4.351197 2.209709
v -14.199668 7.337718 2.209709
v -14.199668 7.337718 -6.363279
v -14.199668 4.351197 -6.363280
v -5.382823 7.337718 -6.363279
v -5.382823 4.351197 -6.363280
v -5.382823 7.337718 2.209709
v -5.382823 4.351197 2.209709
v 8.956333 0.504833 13.417088
v 8.956333 3.008241 13.417088
v 8.956333 3.008242 8.040757
v 8.956333 0.504835 8.040757
v 15.629160 3.008242 8.040757
v 15.629160 0.504835 8.040757
v 15.629160 3.008241 13.417088
v 15.629160 0.504833 13.417088
v -9.999999 -1.002587 9.999996
v -20.000000 -1.002587 9.999995
v -19.999996 -1.002586 -0.000006
v -19.999992 -1.002583 -20.000008
v -19.999998 0.997417 -20.000000
v -9.999997 -1.002586 -0.000004
v 0.000001 -1.002587 9.999998
v 0.000001 2.668442 9.999998
v -9.999999 2.668442 9.999996
v 20.000000 11.571155 -19.999998
v 20.000000 -1.002583 -19.999998
v 20.000000 -1.002586 -9.999998
v -11.486852 -1.283947 -9.034533
v -11.486852 1.791937 -9.034533
v -10.036292 -1.283947 -11.746901
v -10.036292 1.791937 -11.746901
v -8.774484 -1.283947 -7.583973
v -8.774484 1.791937 -7.583973
v -7.323925 -1.283947 -10.296343
v -7.323925 1.791937 -10.296343
v -16.879177 -0.994350 -11.654077
v -16.879177 2.081535 -11.654077
v -15.428618 -0.994350 -14.366445
v -15.428618 2.081535 -14.366445
v -14.166810 -0.994350 -10.203518
v -14.166810 2.081535 -10.203518
v -12.716251 -0.994350 -12.915887
v -12.716251 2.081535 -12.915887
vn 0.0000 -0.0000 -1.0000
vn -0.0000 -0.0000 1.0000
vn -1.0000 0.0000 0.0000
vn 1.0000 0.0000 0.0000
vn 0.0000 -1.0000 -0.0000
vn 0.0000 1.0000 0.0000
vn -0.8818 0.0000 -0.4716
vn 0.4716 0.0000 -0.8818
vn 0.8818 0.0000 0.4716
vn -0.4716 0.0000 0.8818
vn -0.3858 0.9226 0.0000
vn -0.7827 0.6225 0.0000
usemtl Material.001
s off
f 1//1 2//1 3//1 4//1
f 5//2 6//2 7//2
f 5//2 8//2 6//2
f 5//2 7//2 9//2
f 10//2 11//2 12//2
f 13//1 14//1 15//1
f 16//3 17//3 18//3 19//3
f 18//1 20//1 21//1 19//1
f 22//3 23//3 24//3 25//3
f 25//1 24//1 26//1 27//1
f 27//4 26//4 28//4 29//4
f 29//2 28//2 23//2 22//2
f 25//5 27//5 29//5 22//5
f 26//6 24//6 23//6 28//6
f 30//3 31//3 32//3 33//3
f 33//1 32//1 34//1 35//1
f 35//4 34//4 36//4 37//4
f 37//2 36//2 31//2 30//2
f 33//5 35//5 37//5 30//5
f 34//6 32//6 31//6 36//6
f 50//7 51//7 53//7 52//7
f 52//8 53//8 57//8 56//8
f 56//9 57//9 55//9 54//9
f 54//10 55//10 51//10 50//10
f 52//5 56//5 54//5 50//5
f 57//6 53//6 51//6 55//6
f 58//7 59//7 61//7 60//7
f 60//8 61//8 65//8 64//8
f 64//9 65//9 63//9 62//9
f 62//10 63//10 59//10 58//10
f 60//5 64//5 62//5 58//5
f 65//6 61//6 59//6 63//6
s 1
f 38//6 39//6 2//6 1//6
f 2//4 39//4 40//4 41//4 42//4 3//4
f 14//6 41//6 40//6 43//6 10//6 9//6
f 17//6 11//6 10//6 44//6 20//6 18//6
f 43//6 40//6 39//6 38//6
f 10//6 43//6 38//6 44//6
f 20//2 21//2 4//2 1//2
f 45//6 46//6 4//6 21//6
f 1//3 4//3 46//3 38//3
f 38//1 46//1 45//1 44//1
f 44//4 45//4 21//4 20//4
f 13//1 15//1 47//1 48//1
f 17//2 16//2 12//2 11//2
f 47//6 15//6 7//6 6//6
f 48//4 47//4 6//4 49//4
f 8//6 5//6 12//6 16//6
f 49//4 8//4 16//4 17//4
f 9//11 10//11 12//11 5//11
f 14//12 9//12 7//12 15//12
f 42//2 41//2 14//2 15//2
