# Blender v2.79 (sub 0) OBJ File: ''
# www.blender.org
mtllib sandbox.mtl
o Cube.001
v 20.000000 -1.002585 -19.999998
v 20.000000 -1.002588 20.000000
v -20.000002 -1.002588 19.999996
v -19.999992 -1.002585 -20.000008
v 20.000000 2.369245 20.000000
v -20.000008 0.997412 19.999992
v -19.999998 0.997415 -20.000000
v 20.000000 -1.002586 0.000002
v 0.000000 -1.002588 19.999998
v -19.999996 -1.002586 -0.000006
v 0.000004 -1.002585 -20.000004
v 0.000002 -1.002586 -0.000002
v -10.000001 -1.002588 19.999996
v -20.000000 -1.002587 9.999995
v -9.999997 -1.002586 -0.000004
v 0.000001 -1.002587 9.999998
v -9.999999 -1.002587 9.999996
v 0.000000 2.668442 19.999998
v -10.000001 2.668442 19.999996
v 0.000001 2.668443 9.999998
v -9.999999 2.668443 9.999996
v 20.000000 -1.002586 -9.999998
v 10.000002 -1.002585 -20.000000
v 10.000001 -1.002586 -0.000000
v 0.000003 -1.002586 -10.000003
v 20.000000 11.571153 -19.999998
v 20.000000 11.571152 -9.999998
v 10.000002 11.571153 -20.000000
v 10.000002 11.571152 -10.000000
v 20.000000 3.178635 -9.999998
v 20.000000 3.178635 0.000002
v 10.000001 3.178635 -0.000000
v 10.000002 3.178635 -10.000000
vn 0.0000 -0.0000 -1.0000
vn -0.0000 0.0000 1.0000
vn -1.0000 0.0000 0.0000
vn -0.0000 1.0000 0.0000
vn 1.0000 0.0000 0.0000
vn -0.3858 0.9226 0.0000
vn -0.7827 0.6225 0.0000
usemtl Material.001
s off
f 13//1 3//1 6//1 19//1
f 33//2 27//2 29//2
f 33//2 30//2 27//2
f 33//2 29//2 25//2
f 12//2 24//2 32//2
f 23//1 11//1 28//1
f 31//3 8//3 2//3 5//3
f 2//1 9//1 18//1 5//1
s 1
f 17//4 14//4 3//4 13//4
f 3//5 14//5 10//5 4//5 7//5 6//5
f 11//4 4//4 10//4 15//4 12//4 25//4
f 8//4 24//4 12//4 16//4 9//4 2//4
f 15//4 10//4 14//4 17//4
f 12//4 15//4 17//4 16//4
f 9//2 18//2 19//2 13//2
f 20//4 21//4 19//4 18//4
f 13//3 19//3 21//3 17//3
f 17//1 21//1 20//1 16//1
f 16//5 20//5 18//5 9//5
f 23//1 28//1 26//1 1//1
f 8//2 31//2 32//2 24//2
f 26//4 28//4 29//4 27//4
f 1//5 26//5 27//5 22//5
f 30//4 33//4 32//4 31//4
f 22//5 30//5 31//5 8//5
f 25//6 12//6 32//6 33//6
f 11//7 25//7 29//7 28//7
f 7//2 4//2 11//2 28//2
